<?xml version="1.0" encoding="UTF-8" standalone="no"?>
<svg
   xmlns:dc="http://purl.org/dc/elements/1.1/"
   xmlns:cc="http://creativecommons.org/ns#"
   xmlns:rdf="http://www.w3.org/1999/02/22-rdf-syntax-ns#"
   xmlns:svg="http://www.w3.org/2000/svg"
   xmlns="http://www.w3.org/2000/svg"
   id="svg2199"
   version="1.1"
   viewBox="0 0 34.622929 32.536354"
   height="32.536354mm"
   width="34.622929mm">
  <defs
     id="defs2193" />
  <metadata
     id="metadata2196">
    <rdf:RDF>
      <cc:Work
         rdf:about="">
        <dc:format>image/svg+xml</dc:format>
        <dc:type
           rdf:resource="http://purl.org/dc/dcmitype/StillImage" />
        <dc:title></dc:title>
      </cc:Work>
    </rdf:RDF>
  </metadata>
  <g
     transform="translate(-110.44448,-106.19611)"
     id="layer1">
    <g
       style="fill:#ff4357;fill-opacity:1"
       id="g2160"
       transform="matrix(0.11657597,0,0,0.11657597,110.44444,105.15287)">
      <g
         id="g2099">
        <g
           id="g2097">
          <g
             id="g2095">
            <path
               id="path2087"
               d="m 147.444,259.621 c -14.214,0 -14.214,3.622 -14.214,6.818 0,9.492 7.97,21.61 14.214,21.61 6.244,0 14.213,-12.118 14.213,-21.61 0,-3.196 0,-6.818 -14.213,-6.818 z" />
            <path
               id="path2089"
               d="M 32.975,114.237 C 34.651,85.562 46.282,63.998 67.631,50.082 79.42,42.397 94.326,37.079 112.167,34.17 101.618,18.578 83.928,8.949 64.635,8.949 32.983,8.949 7.233,34.699 7.233,66.35 c 0,19.684 9.808,37.427 25.742,47.887 z" />
            <path
               id="path2091"
               d="m 261.987,115.521 c 17.134,-10.251 27.78,-28.66 27.78,-49.171 0,-31.651 -25.75,-57.401 -57.402,-57.401 -19.433,0 -37.242,9.767 -47.763,25.559 17,2.971 31.286,8.164 42.654,15.574 21.667,14.123 33.333,36.12 34.731,65.439 z" />
            <path
               id="path2093"
               d="m 292.211,204.011 c -22.34,-9.74 -44.983,-11.505 -63.937,-10.195 11.191,-22.995 17.909,-48.795 17.909,-72.209 0,-27.017 -9.04,-46.043 -27.636,-58.165 -16.235,-10.583 -40.157,-15.949 -71.103,-15.949 -30.946,0 -54.869,5.366 -71.104,15.949 -18.596,12.122 -27.636,31.148 -27.636,58.165 0,23.369 6.691,49.113 17.844,72.074 -18.498,-1.028 -40.269,0.96 -61.759,10.33 -4.037,1.76 -5.882,6.46 -4.122,10.496 1.759,4.038 6.459,5.885 10.496,4.122 22.745,-9.915 46.37,-10.277 64.767,-7.982 3.914,6.244 8.168,12.13 12.702,17.53 -21.126,5.865 -50.824,18.399 -72.83,44.87 -2.816,3.387 -2.353,8.414 1.034,11.229 1.489,1.239 3.297,1.843 5.094,1.843 2.288,0 4.559,-0.979 6.135,-2.876 22.391,-26.933 54.898,-37.65 73.467,-41.756 5.982,5.284 12.291,9.704 18.835,13.02 2.112,-3.439 4.987,-5.667 7.601,-7.077 4.751,-2.563 10.94,-3.757 19.476,-3.757 8.536,0 14.724,1.194 19.475,3.757 2.615,1.41 5.491,3.64 7.603,7.081 6.705,-3.398 13.164,-7.953 19.275,-13.412 18.204,3.789 51.975,14.282 75.138,42.144 1.577,1.897 3.848,2.876 6.135,2.876 1.797,0 3.605,-0.604 5.094,-1.843 3.387,-2.815 3.85,-7.843 1.034,-11.229 -22.61,-27.197 -53.341,-39.683 -74.551,-45.338 4.313,-5.182 8.369,-10.804 12.116,-16.755 18.703,-2.614 43.365,-2.659 67.073,7.676 1.038,0.453 2.119,0.667 3.183,0.667 3.075,0 6.006,-1.79 7.313,-4.789 1.761,-4.037 -0.084,-8.737 -4.121,-10.497 z m -183.06,-39.077 c -5.035,0 -9.117,-4.082 -9.117,-9.118 0,-5.036 4.082,-9.118 9.117,-9.117 5.035,0 9.117,4.082 9.117,9.117 0,5.036 -4.082,9.118 -9.117,9.118 z m 79.178,0 c -5.035,0 -9.117,-4.082 -9.117,-9.118 0,-5.036 4.082,-9.118 9.117,-9.117 5.035,0 9.117,4.082 9.117,9.117 0,5.036 -4.082,9.118 -9.117,9.118 z" />
          </g>
        </g>
      </g>
      <g
         id="g2101" />
      <g
         id="g2103" />
      <g
         id="g2105" />
      <g
         id="g2107" />
      <g
         id="g2109" />
      <g
         id="g2111" />
      <g
         id="g2113" />
      <g
         id="g2115" />
      <g
         id="g2117" />
      <g
         id="g2119" />
      <g
         id="g2121" />
      <g
         id="g2123" />
      <g
         id="g2125" />
      <g
         id="g2127" />
      <g
         id="g2129" />
    </g>
  </g>
</svg>
