<?xml version="1.0" standalone="no"?>
<!DOCTYPE svg PUBLIC "-//W3C//DTD SVG 20010904//EN"
 "http://www.w3.org/TR/2001/REC-SVG-20010904/DTD/svg10.dtd">
<svg version="1.0" xmlns="http://www.w3.org/2000/svg"
 width="696.000000pt" height="696.000000pt" viewBox="0 0 696.000000 696.000000"
 preserveAspectRatio="xMidYMid meet">
<metadata>
Created by potrace 1.14, written by Peter Selinger 2001-2017
</metadata>
<g transform="translate(0.000000,696.000000) scale(0.100000,-0.100000)"
fill="#000000" stroke="none">
<path d="M3694 6945 c-90 -28 -160 -95 -190 -181 -16 -44 -10 -170 11 -229 38
-112 123 -235 228 -331 66 -60 66 -63 25 -89 -103 -66 -242 -165 -275 -195
-12 -11 -26 -20 -30 -20 -4 0 -24 -15 -44 -33 -21 -17 -60 -50 -89 -72 -29
-22 -60 -47 -69 -56 -9 -9 -50 -45 -91 -80 -90 -77 -332 -317 -415 -413 -33
-38 -65 -74 -70 -80 -30 -32 -173 -214 -183 -233 -7 -12 -18 -27 -25 -35 -16
-16 -124 -177 -158 -233 -13 -22 -27 -41 -31 -43 -4 -2 -8 -7 -8 -12 0 -4 -24
-50 -53 -101 -68 -120 -173 -336 -183 -374 -1 -5 -18 -50 -38 -98 -20 -48 -36
-92 -36 -97 0 -5 -5 -21 -12 -37 -13 -34 -9 -19 -53 -178 -38 -139 -43 -161
-50 -214 -3 -18 -7 -36 -9 -40 -2 -3 -7 -28 -10 -56 -7 -53 -14 -90 -16 -90
-1 0 -3 -18 -5 -40 -1 -22 -6 -74 -11 -115 -9 -90 -9 -437 -1 -535 4 -38 9
-94 12 -124 2 -29 7 -63 11 -75 l6 -21 -20 20 c-61 61 -232 350 -289 490 -34
84 -82 244 -96 325 -11 60 -17 98 -23 145 -9 71 -9 347 0 425 12 111 16 134
21 160 3 14 7 39 9 55 2 17 6 41 9 55 4 14 18 77 33 140 15 63 29 120 32 125
4 6 8 18 9 28 5 32 105 322 114 332 5 5 9 15 9 23 0 7 10 34 21 60 12 25 22
51 23 57 1 5 12 33 25 60 13 28 30 66 38 85 30 69 56 126 92 200 20 41 38 78
39 82 7 17 -23 6 -116 -40 -82 -41 -255 -144 -272 -162 -3 -3 -36 -30 -75 -61
-106 -85 -226 -207 -330 -336 -5 -7 -15 -18 -20 -25 -6 -7 -26 -35 -45 -63
-18 -27 -37 -52 -40 -55 -13 -10 -129 -210 -122 -210 4 0 3 -4 -3 -8 -14 -10
-75 -129 -75 -146 0 -8 -4 -16 -9 -18 -5 -1 -11 -12 -13 -23 -1 -11 -6 -22 -9
-25 -14 -12 -132 -344 -143 -403 -3 -12 -5 -22 -6 -22 -1 0 -3 -8 -5 -17 -2
-9 -11 -48 -20 -85 -10 -37 -19 -79 -21 -93 -3 -14 -7 -36 -9 -50 -3 -14 -7
-43 -11 -65 -3 -22 -7 -51 -10 -65 -21 -107 -29 -248 -29 -475 1 -226 6 -355
15 -355 3 0 5 -19 5 -43 -1 -23 2 -46 4 -52 3 -5 6 -15 7 -22 1 -6 5 -29 8
-50 9 -59 15 -92 32 -168 9 -38 17 -77 19 -86 2 -9 13 -49 25 -90 108 -367
283 -704 509 -979 72 -88 268 -281 361 -355 47 -38 132 -99 190 -137 58 -37
110 -72 115 -76 31 -24 380 -191 415 -198 3 0 16 -5 30 -11 14 -5 50 -18 80
-28 30 -10 64 -21 75 -25 22 -9 167 -48 205 -56 14 -3 36 -7 50 -10 14 -2 32
-7 40 -10 21 -8 234 -43 295 -50 28 -2 59 -6 70 -9 131 -26 728 -27 895 0 14
2 48 6 75 10 56 7 170 29 260 51 33 8 69 17 80 19 37 9 270 87 290 98 11 6 26
12 33 13 50 9 473 240 507 278 6 6 29 23 51 38 174 113 493 434 634 638 13 19
29 40 35 46 5 7 22 31 37 55 15 24 33 53 40 64 68 105 187 328 232 435 36 85
102 265 120 325 10 33 20 67 23 75 7 19 11 30 16 55 3 11 11 40 18 65 6 25 13
52 14 60 3 17 12 62 20 100 9 40 13 62 20 115 4 28 9 64 11 80 3 17 7 44 10
60 9 57 12 450 3 520 -11 99 -26 199 -34 230 -33 135 -78 279 -94 304 -8 12
-47 15 -203 17 -169 1 -253 5 -373 19 -97 10 -142 16 -156 21 -10 2 -31 6 -48
9 -17 2 -38 6 -48 9 -10 3 -34 8 -53 11 -47 8 -219 59 -304 90 -98 36 -237
107 -321 166 -94 65 -225 198 -225 228 0 6 -4 11 -9 11 -10 0 -58 115 -67 162
-5 28 -6 127 -2 176 1 10 15 12 62 6 69 -9 219 -9 286 0 37 5 134 27 175 40 6
1 24 6 40 11 17 4 35 11 40 15 6 3 32 15 60 25 75 28 189 90 289 158 218 147
451 384 588 597 80 124 170 300 184 356 4 16 11 34 15 40 5 6 22 62 38 124
l29 114 -26 34 c-37 48 -159 126 -217 138 -5 1 -30 9 -55 17 -25 8 -70 20
-100 26 -30 6 -66 14 -80 16 -49 10 -226 34 -250 33 -8 0 -42 3 -75 7 -33 4
-229 8 -435 10 -282 3 -392 0 -445 -9 -38 -8 -75 -12 -81 -9 -6 2 -20 23 -30
46 -10 23 -21 44 -25 47 -3 3 -14 20 -23 38 -9 17 -21 32 -26 32 -5 0 -11 8
-15 18 -13 43 -244 242 -280 242 -8 0 -15 4 -17 8 -4 11 -122 62 -182 79 -69
20 -230 24 -282 8z m1127 -915 c67 -35 100 -91 96 -166 -5 -92 -77 -158 -169
-156 -59 1 -99 22 -135 68 -23 31 -28 47 -28 99 0 53 4 67 29 99 49 65 141 90
207 56z"/>
</g>
</svg>
