<?xml version="1.0" encoding="UTF-8" standalone="no"?>
<svg
   xmlns:dc="http://purl.org/dc/elements/1.1/"
   xmlns:cc="http://creativecommons.org/ns#"
   xmlns:rdf="http://www.w3.org/1999/02/22-rdf-syntax-ns#"
   xmlns:svg="http://www.w3.org/2000/svg"
   xmlns="http://www.w3.org/2000/svg"
   xmlns:sodipodi="http://sodipodi.sourceforge.net/DTD/sodipodi-0.dtd"
   xmlns:inkscape="http://www.inkscape.org/namespaces/inkscape"
   id="svg2199"
   version="1.1"
   viewBox="0 0 79.375 92.18419"
   height="92.184189mm"
   width="79.375mm"
   sodipodi:docname="ratatin-icon.svg"
   inkscape:version="1.0 (4035a4f, 2020-05-01)">
  <sodipodi:namedview
     inkscape:document-rotation="0"
     pagecolor="#ffffff"
     bordercolor="#666666"
     borderopacity="1"
     objecttolerance="10"
     gridtolerance="10"
     guidetolerance="10"
     inkscape:pageopacity="0"
     inkscape:pageshadow="2"
     inkscape:window-width="1680"
     inkscape:window-height="997"
     id="namedview1043"
     showgrid="false"
     fit-margin-top="0"
     fit-margin-left="0"
     fit-margin-right="0"
     fit-margin-bottom="0"
     inkscape:zoom="0.33443628"
     inkscape:cx="-260.12919"
     inkscape:cy="583.39339"
     inkscape:window-x="0"
     inkscape:window-y="25"
     inkscape:window-maximized="1"
     inkscape:current-layer="svg2199" />
  <defs
     id="defs2193" />
  <metadata
     id="metadata2196">
    <rdf:RDF>
      <cc:Work
         rdf:about="">
        <dc:format>image/svg+xml</dc:format>
        <dc:type
           rdf:resource="http://purl.org/dc/dcmitype/StillImage" />
        <dc:title></dc:title>
      </cc:Work>
    </rdf:RDF>
  </metadata>
  <path
     id="path994"
     style="display:inline;fill:#ff4357;fill-opacity:1;stroke:none;stroke-width:0.230699px;stroke-linecap:butt;stroke-linejoin:miter;stroke-opacity:1"
     d="m 43.878724,0.00110983 c -1.389081,0.0273685 -2.574771,0.48950141 -3.323371,1.41195227 -1.825159,2.2490162 -0.360294,6.3834107 3.272004,9.2344219 0.06741,0.05289 0.13569,0.10328 0.203391,0.15456 C 29.570105,20.030692 14.318231,37.543499 17.748569,60.261678 11.64627,52.401656 8.3074175,42.481199 18.502269,22.015329 -8.4342952,32.594433 -10.062067,93.172396 41.379288,92.171939 72.591244,91.564909 84.422789,58.147776 77.43057,42.164963 61.602965,42.827102 52.084605,36.532377 53.651092,30.004544 63.294454,32.199998 75.556116,21.35289 77.462663,10.529597 75.582419,7.0609776 66.039197,6.5469857 56.780492,6.7920144 55.821385,6.8173663 54.911829,6.9501179 54.052977,7.1708002 53.435745,5.5533508 52.189729,3.8790125 50.436878,2.5031983 48.39369,0.89950522 46.09972,0.04330918 44.158977,0.00151604 c -0.09421,-0.0015239931 -0.187834,-0.00228743 -0.280311,-4.0332e-4 z M 56.437723,12.100457 c 0.0029,-6e-6 0.0086,-6e-6 0.01152,0 1.248954,6.3e-5 2.261416,1.012542 2.261473,2.261511 -5.7e-5,1.248962 -1.012519,2.261441 -2.261473,2.261502 -1.249012,-2.9e-5 -2.261502,-1.012516 -2.26156,-2.261502 2.9e-5,-1.244336 1.005259,-2.254902 2.249575,-2.261511 z"
     sodipodi:nodetypes="ssscccscccscscssscccsss" />
</svg>
