<?xml version="1.0" encoding="UTF-8" standalone="no"?>
<svg
   xmlns:dc="http://purl.org/dc/elements/1.1/"
   xmlns:cc="http://creativecommons.org/ns#"
   xmlns:rdf="http://www.w3.org/1999/02/22-rdf-syntax-ns#"
   xmlns:svg="http://www.w3.org/2000/svg"
   xmlns="http://www.w3.org/2000/svg"
   xmlns:sodipodi="http://sodipodi.sourceforge.net/DTD/sodipodi-0.dtd"
   xmlns:inkscape="http://www.inkscape.org/namespaces/inkscape"
   class="H(24px) Mx(12px)"
   viewBox="0 0 586.3891 122.57445"
   version="1.1"
   id="svg1518"
   sodipodi:docname="ratatin.svg"
   inkscape:version="1.0 (4035a4f, 2020-05-01)"
   width="586.3891"
   height="122.57446">
  <metadata
     id="metadata1524">
    <rdf:RDF>
      <cc:Work
         rdf:about="">
        <dc:format>image/svg+xml</dc:format>
        <dc:type
           rdf:resource="http://purl.org/dc/dcmitype/StillImage" />
        <dc:title></dc:title>
      </cc:Work>
    </rdf:RDF>
  </metadata>
  <defs
     id="defs1522" />
  <sodipodi:namedview
     inkscape:object-paths="false"
     inkscape:object-nodes="true"
     inkscape:document-rotation="0"
     pagecolor="#ffffff"
     bordercolor="#666666"
     borderopacity="1"
     objecttolerance="10"
     gridtolerance="10"
     guidetolerance="10"
     inkscape:pageopacity="0"
     inkscape:pageshadow="2"
     inkscape:window-width="1680"
     inkscape:window-height="997"
     id="namedview1520"
     showgrid="false"
     inkscape:zoom="0.21103215"
     inkscape:cx="1754.2238"
     inkscape:cy="-202.4"
     inkscape:window-x="6"
     inkscape:window-y="25"
     inkscape:window-maximized="1"
     inkscape:current-layer="svg1518"
     inkscape:snap-global="false"
     inkscape:snap-page="true"
     fit-margin-top="0"
     fit-margin-left="0"
     fit-margin-right="0"
     fit-margin-bottom="0"
     showguides="false"
     inkscape:guide-bbox="true">
    <sodipodi:guide
       position="423.0327,-335.78939"
       orientation="0,-1"
       id="guide3014" />
    <sodipodi:guide
       id="guide1863"
       orientation="0,-1"
       position="458.53738,3.3744552" />
    <sodipodi:guide
       id="guide1956"
       orientation="0,-1"
       position="508.55763,87.874453" />
    <sodipodi:guide
       id="guide1958"
       orientation="0,-1"
       position="458.53738,3.3744652" />
    <sodipodi:guide
       id="guide1960"
       orientation="0,-1"
       position="201.19073,89.984763" />
    <sodipodi:guide
       id="guide1962"
       orientation="0,-1"
       position="456.5774,1.3276153" />
    <sodipodi:guide
       id="guide1974"
       orientation="1,0"
       position="471.78792,85.887043" />
  </sodipodi:namedview>
  <g
     id="g2128">
    <g
       style="fill:#ff4357;fill-opacity:1;fill-rule:evenodd"
       transform="matrix(0.43806347,0,0,0.43806347,-1.6e-4,-3.60929)"
       id="g1843">
      <g
         id="g1811">
        <g
           id="g1809">
          <g
             id="g1807">
            <path
               d="m 147.444,259.621 c -14.214,0 -14.214,3.622 -14.214,6.818 0,9.492 7.97,21.61 14.214,21.61 6.244,0 14.213,-12.118 14.213,-21.61 0,-3.196 0,-6.818 -14.213,-6.818 z"
               id="path1799" />
            <path
               d="M 32.975,114.237 C 34.651,85.562 46.282,63.998 67.631,50.082 79.42,42.397 94.326,37.079 112.167,34.17 101.618,18.578 83.928,8.949 64.635,8.949 32.983,8.949 7.233,34.699 7.233,66.35 c 0,19.684 9.808,37.427 25.742,47.887 z"
               id="path1801" />
            <path
               d="m 261.987,115.521 c 17.134,-10.251 27.78,-28.66 27.78,-49.171 0,-31.651 -25.75,-57.401 -57.402,-57.401 -19.433,0 -37.242,9.767 -47.763,25.559 17,2.971 31.286,8.164 42.654,15.574 21.667,14.123 33.333,36.12 34.731,65.439 z"
               id="path1803" />
            <path
               d="m 292.211,204.011 c -22.34,-9.74 -44.983,-11.505 -63.937,-10.195 11.191,-22.995 17.909,-48.795 17.909,-72.209 0,-27.017 -9.04,-46.043 -27.636,-58.165 -16.235,-10.583 -40.157,-15.949 -71.103,-15.949 -30.946,0 -54.869,5.366 -71.104,15.949 -18.596,12.122 -27.636,31.148 -27.636,58.165 0,23.369 6.691,49.113 17.844,72.074 -18.498,-1.028 -40.269,0.96 -61.759,10.33 -4.037,1.76 -5.882,6.46 -4.122,10.496 1.759,4.038 6.459,5.885 10.496,4.122 22.745,-9.915 46.37,-10.277 64.767,-7.982 3.914,6.244 8.168,12.13 12.702,17.53 -21.126,5.865 -50.824,18.399 -72.83,44.87 -2.816,3.387 -2.353,8.414 1.034,11.229 1.489,1.239 3.297,1.843 5.094,1.843 2.288,0 4.559,-0.979 6.135,-2.876 22.391,-26.933 54.898,-37.65 73.467,-41.756 5.982,5.284 12.291,9.704 18.835,13.02 2.112,-3.439 4.987,-5.667 7.601,-7.077 4.751,-2.563 10.94,-3.757 19.476,-3.757 8.536,0 14.724,1.194 19.475,3.757 2.615,1.41 5.491,3.64 7.603,7.081 6.705,-3.398 13.164,-7.953 19.275,-13.412 18.204,3.789 51.975,14.282 75.138,42.144 1.577,1.897 3.848,2.876 6.135,2.876 1.797,0 3.605,-0.604 5.094,-1.843 3.387,-2.815 3.85,-7.843 1.034,-11.229 -22.61,-27.197 -53.341,-39.683 -74.551,-45.338 4.313,-5.182 8.369,-10.804 12.116,-16.755 18.703,-2.614 43.365,-2.659 67.073,7.676 1.038,0.453 2.119,0.667 3.183,0.667 3.075,0 6.006,-1.79 7.313,-4.789 1.761,-4.037 -0.084,-8.737 -4.121,-10.497 z m -183.06,-39.077 c -5.035,0 -9.117,-4.082 -9.117,-9.118 0,-5.036 4.082,-9.118 9.117,-9.117 5.035,0 9.117,4.082 9.117,9.117 0,5.036 -4.082,9.118 -9.117,9.118 z m 79.178,0 c -5.035,0 -9.117,-4.082 -9.117,-9.118 0,-5.036 4.082,-9.118 9.117,-9.117 5.035,0 9.117,4.082 9.117,9.117 0,5.036 -4.082,9.118 -9.117,9.118 z"
               id="path1805" />
          </g>
        </g>
      </g>
      <g
         id="g1813" />
      <g
         id="g1815" />
      <g
         id="g1817" />
      <g
         id="g1819" />
      <g
         id="g1821" />
      <g
         id="g1823" />
      <g
         id="g1825" />
      <g
         id="g1827" />
      <g
         id="g1829" />
      <g
         id="g1831" />
      <g
         id="g1833" />
      <g
         id="g1835" />
      <g
         id="g1837" />
      <g
         id="g1839" />
      <g
         id="g1841" />
    </g>
    <g
       id="g1939"
       transform="translate(324.05174,532.02767)"
       style="fill:#ff4357;fill-opacity:1">
      <path
         id="path1593-5"
         d="m 234.43736,-499.52767 c 18,0 27.9,9.8 27.9,27.7 v 59 h -20.8 v -54 c -0.4,-9.6 -5,-14 -14.8,-14 -8.8,0 -15.9,5.4 -19.5,10 v 58 h -20.8 v -84.5 h 20.8 v 9 c 6,-5.8 15.6,-11 27.2,-11 z"
         style="fill:#ff4357;fill-opacity:1;fill-rule:evenodd" />
      <path
         id="path1591-9"
         d="m 168.03736,-532.02767 a 12.5,12.5 0 1 1 -12.5,12.6 c 0,-6.8 5.7,-12.6 12.5,-12.6 z"
         style="fill:#ff4357;fill-opacity:1;fill-rule:evenodd" />
      <path
         id="path1589-5"
         d="m 157.73736,-412.72767 v -84.7 h 20.8 v 84.7 z"
         style="fill:#ff4357;fill-opacity:1;fill-rule:evenodd" />
      <path
         id="path1581-3"
         d="m 146.73736,-431.92767 1.7,-2 5.3,16.8 -0.7,0.7 c -4,3.7 -10,5.6 -17.7,5.6 h -0.3 c -7,0 -12.5,-2 -16.3,-5.7 -3.8,-3.8 -5.8,-9.5 -5.8,-16.7 v -45.8 H 99.437359 v -18.5 h 13.500001 v -22.3 h 20.8 v 22.3 h 16.5 v 18.5 h -16.6 v 41.3 c 0,1.9 0.5,8 6.3,8 3,0 5.8,-1.1 6.8,-2.3 z"
         style="fill:#ff4357;fill-opacity:1;fill-rule:evenodd" />
    </g>
    <path
       style="fill:#ff4357;fill-opacity:1;fill-rule:evenodd"
       d="m 199.92715,32.6 h 1.5 v 21 l -1.79999,-0.3 c -1.5,-0.3 -3.40001,-0.5 -5.30001,-0.5 -6.69999,0 -16,4.7 -19.5,9.7 v 56.7 h -20.8 V 34.6 h 20.9 V 44 c 6.9,-7.2 16,-11.4 25,-11.4 z"
       id="path1603-0" />
    <g
       transform="translate(185.96249,532.02767)"
       id="g1972"
       style="fill:#ff4357;fill-opacity:1">
      <path
         style="fill:#ff4357;fill-opacity:1;fill-rule:evenodd"
         d="m 146.73736,-431.92767 1.7,-2 5.3,16.8 -0.7,0.7 c -4,3.7 -10,5.6 -17.7,5.6 h -0.3 c -7,0 -12.5,-2 -16.3,-5.7 -3.8,-3.8 -5.8,-9.5 -5.8,-16.7 v -45.8 H 99.437359 v -18.5 h 13.500001 v -22.3 h 20.8 v 22.3 h 16.5 v 18.5 h -16.6 v 41.3 c 0,1.9 0.5,8 6.3,8 3,0 5.8,-1.1 6.8,-2.3 z"
         id="path1970" />
    </g>
    <path
       id="path2080"
       style="fill:#ff4357;fill-opacity:1;fill-rule:evenodd"
       d="m 239.31451,32.506013 c -22.70001,0 -37.9004,17.80039 -37.9004,44.40039 0,26.499997 15.20039,44.298827 37.9004,44.298827 9.34698,-0.052 18.26789,-3.91639 24.69922,-10.69922 v 8.79883 h 20.80078 V 75.939103 c 0,-23.80935 -20.16379,-43.22474 -45.5,-43.43309 z m 5.09961,18.69922 c 7.70557,0.21248 19.59961,6.79837 19.59961,24.40096 v 17.09904 c -3.9,5.799997 -12.09961,9.800777 -19.59961,9.800777 -12.90001,0 -21.50001,-10.299597 -21.50001,-25.599607 0,-15.4 8.6,-25.70117 21.50001,-25.70117 z"
       sodipodi:nodetypes="cscccccccccssc" />
    <path
       sodipodi:nodetypes="cscccccccccssc"
       d="m 376.68837,32.506013 c -22.70001,0 -37.9004,17.80039 -37.9004,44.40039 0,26.499997 15.20039,44.298827 37.9004,44.298827 9.34698,-0.052 18.26789,-3.91639 24.69922,-10.69922 v 8.79883 h 20.80078 V 75.939103 c 0,-23.80935 -20.16379,-43.22474 -45.5,-43.43309 z m 5.09961,18.69922 c 7.70557,0.21248 19.59961,6.79837 19.59961,24.40096 v 17.09904 c -3.9,5.799997 -12.09961,9.800777 -19.59961,9.800777 -12.90001,0 -21.50001,-10.299597 -21.50001,-25.599607 0,-15.4 8.6,-25.70117 21.50001,-25.70117 z"
       style="fill:#ff4357;fill-opacity:1;fill-rule:evenodd"
       id="path2084" />
  </g>
</svg>
