<?xml version="1.0" encoding="UTF-8" standalone="no"?>
<svg
   xmlns:dc="http://purl.org/dc/elements/1.1/"
   xmlns:cc="http://creativecommons.org/ns#"
   xmlns:rdf="http://www.w3.org/1999/02/22-rdf-syntax-ns#"
   xmlns:svg="http://www.w3.org/2000/svg"
   xmlns="http://www.w3.org/2000/svg"
   xmlns:sodipodi="http://sodipodi.sourceforge.net/DTD/sodipodi-0.dtd"
   xmlns:inkscape="http://www.inkscape.org/namespaces/inkscape"
   height="125.30767"
   width="542.5116"
   inkscape:version="1.0 (4035a4f, 2020-05-01)"
   sodipodi:docname="ratatin.svg"
   id="svg1518"
   version="1.1"
   viewBox="0 0 542.5116 125.30766"
   class="H(24px) Mx(12px)">
  <metadata
     id="metadata1524">
    <rdf:RDF>
      <cc:Work
         rdf:about="">
        <dc:format>image/svg+xml</dc:format>
        <dc:type
           rdf:resource="http://purl.org/dc/dcmitype/StillImage" />
        <dc:title></dc:title>
      </cc:Work>
    </rdf:RDF>
  </metadata>
  <defs
     id="defs1522" />
  <sodipodi:namedview
     inkscape:guide-bbox="true"
     showguides="true"
     fit-margin-bottom="0"
     fit-margin-right="0"
     fit-margin-left="0"
     fit-margin-top="0"
     inkscape:snap-page="true"
     inkscape:snap-global="false"
     inkscape:current-layer="layer2"
     inkscape:window-maximized="1"
     inkscape:window-y="25"
     inkscape:window-x="0"
     inkscape:cy="-224.91862"
     inkscape:cx="276.54349"
     inkscape:zoom="0.41593043"
     showgrid="false"
     id="namedview1520"
     inkscape:window-height="997"
     inkscape:window-width="1680"
     inkscape:pageshadow="2"
     inkscape:pageopacity="0"
     guidetolerance="10"
     gridtolerance="10"
     objecttolerance="10"
     borderopacity="1"
     bordercolor="#666666"
     pagecolor="#ffffff"
     inkscape:document-rotation="0"
     inkscape:object-nodes="true"
     inkscape:object-paths="false">
    <sodipodi:guide
       id="guide3014"
       orientation="0,-1"
       position="401.09394,-334.42279" />
    <sodipodi:guide
       position="436.59862,4.7410629"
       orientation="0,-1"
       id="guide1863" />
    <sodipodi:guide
       position="486.61887,89.241062"
       orientation="0,-1"
       id="guide1956" />
    <sodipodi:guide
       position="436.59862,4.7410729"
       orientation="0,-1"
       id="guide1958" />
    <sodipodi:guide
       position="179.25197,91.351372"
       orientation="0,-1"
       id="guide1960" />
    <sodipodi:guide
       position="434.63864,2.694223"
       orientation="0,-1"
       id="guide1962" />
    <sodipodi:guide
       position="844.45338,822.39438"
       orientation="1,0"
       id="guide1974" />
    <sodipodi:guide
       id="guide2364"
       orientation="0,-1"
       position="135.37243,566.77302" />
  </sodipodi:namedview>
  <g
     transform="translate(-21.938765,1.3666)"
     style="display:inline"
     inkscape:label="bl"
     id="layer2"
     inkscape:groupmode="layer">
    <g
       transform="translate(866.38686,360.90561)"
       id="g2420">
      <g
         id="g2287"
         transform="translate(-564.27388,169.75546)"
         style="fill:#ff4357;fill-opacity:1">
        <path
           id="path2279"
           d="m 234.43736,-499.52767 c 18,0 27.9,9.8 27.9,27.7 v 59 h -20.8 v -54 c -0.4,-9.6 -5,-14 -14.8,-14 -8.8,0 -15.9,5.4 -19.5,10 v 58 h -20.8 v -84.5 h 20.8 v 9 c 6,-5.8 15.6,-11 27.2,-11 z"
           style="fill:#ff4357;fill-opacity:1;fill-rule:evenodd" />
        <path
           id="path2281"
           d="m 168.03736,-532.02767 a 12.5,12.5 0 1 1 -12.5,12.6 c 0,-6.8 5.7,-12.6 12.5,-12.6 z"
           style="fill:#ff4357;fill-opacity:1;fill-rule:evenodd" />
        <path
           id="path2283"
           d="m 157.73736,-412.72767 v -84.7 h 20.8 v 84.7 z"
           style="fill:#ff4357;fill-opacity:1;fill-rule:evenodd" />
        <path
           id="path2285"
           d="m 146.73736,-431.92767 1.7,-2 5.3,16.8 -0.7,0.7 c -4,3.7 -10,5.6 -17.7,5.6 h -0.3 c -7,0 -12.5,-2 -16.3,-5.7 -3.8,-3.8 -5.8,-9.5 -5.8,-16.7 v -45.8 H 99.437359 v -18.5 h 13.500001 v -22.3 h 20.8 v 22.3 h 16.5 v 18.5 h -16.6 v 41.3 c 0,1.9 0.5,8 6.3,8 3,0 5.8,-1.1 6.8,-2.3 z"
           style="fill:#ff4357;fill-opacity:1;fill-rule:evenodd" />
      </g>
      <path
         style="fill:#ff4357;fill-opacity:1;fill-rule:evenodd"
         d="m -670.39847,-329.67221 h 1.5 v 21 l -1.79999,-0.3 c -1.5,-0.3 -3.40001,-0.5 -5.30001,-0.5 -6.69999,0 -16,4.7 -19.5,9.7 v 56.7 h -20.8 v -84.6 h 20.9 v 9.4 c 6.9,-7.2 16,-11.4 25,-11.4 z"
         id="path2289" />
      <g
         transform="translate(-692.36313,169.75546)"
         id="g2293"
         style="fill:#ff4357;fill-opacity:1">
        <path
           style="fill:#ff4357;fill-opacity:1;fill-rule:evenodd"
           d="m 146.73736,-431.92767 1.7,-2 5.3,16.8 -0.7,0.7 c -4,3.7 -10,5.6 -17.7,5.6 h -0.3 c -7,0 -12.5,-2 -16.3,-5.7 -3.8,-3.8 -5.8,-9.5 -5.8,-16.7 v -45.8 H 99.437359 v -18.5 h 13.500001 v -22.3 h 20.8 v 22.3 h 16.5 v 18.5 h -16.6 v 41.3 c 0,1.9 0.5,8 6.3,8 3,0 5.8,-1.1 6.8,-2.3 z"
           id="path2291" />
      </g>
      <path
         id="path2295"
         style="fill:#ff4357;fill-opacity:1;fill-rule:evenodd"
         d="m -631.01111,-329.7662 c -22.70001,0 -37.9004,17.80039 -37.9004,44.40039 0,26.5 12.78164,44.29883 37.9004,44.29883 10.77153,-0.052 12.26789,-3.91639 18.69922,-10.69922 v 8.79883 h 20.80078 v -43.36574 c 0,-23.80935 -14.16379,-43.22474 -39.5,-43.43309 z m 1.09961,18.69922 c 7.70557,0.21248 17.59961,6.79837 17.59961,24.40096 v 17.09904 c -3.9,5.8 -10.09961,9.80078 -17.59961,9.80078 -12.90001,0 -17.50001,-10.2996 -17.50001,-25.59961 0,-15.4 4.6,-25.70117 17.50001,-25.70117 z"
         sodipodi:nodetypes="cscccccccccssc" />
      <path
         id="path994"
         style="fill:#ff4357;fill-opacity:1;stroke:none;stroke-width:0.30266px;stroke-linecap:butt;stroke-linejoin:miter;stroke-opacity:1"
         d="m -786.88251,-357.90214 c -1.82234,0.0359 -3.37788,0.64219 -4.36001,1.85238 -2.39448,2.95055 -0.47268,8.37458 4.29262,12.1149 0.0884,0.0694 0.17798,0.13551 0.26697,0.20276 -18.9713,12.10733 -38.98067,35.08288 -34.48031,64.88751 -8.00578,-10.31179 -12.38612,-23.32672 0.9888,-50.17648 -35.33885,13.87903 -37.47437,93.35299 30.01303,92.04046 40.94786,-0.79638 56.46998,-44.63727 47.29668,-65.60558 -20.76469,0.86868 -33.2521,-7.38955 -31.19696,-15.9536 12.65141,2.88028 28.73784,-11.35035 31.23906,-25.54974 -2.46673,-4.55058 -14.98675,-5.2249 -27.13352,-4.90344 -1.25828,0.0333 -2.45154,0.20742 -3.57829,0.49694 -0.80979,-2.12198 -2.44447,-4.31859 -4.74408,-6.12356 -2.68051,-2.10393 -5.69003,-3.2272 -8.23616,-3.28203 -0.1237,-0.002 -0.24651,-0.003 -0.36786,-5.3e-4 z m 16.47651,15.87348 c 0.005,-10e-6 0.01,-10e-6 0.0148,0 1.63856,8e-5 2.96684,1.32838 2.9669,2.96694 -6e-5,1.63855 -1.32835,2.96685 -2.9669,2.96693 -1.63859,-4e-5 -2.96692,-1.32835 -2.96698,-2.96693 3e-5,-1.63248 1.31883,-2.95827 2.95128,-2.96694 z"
         sodipodi:nodetypes="ssscccscccscscssscccsss" />
      <path
         sodipodi:nodetypes="cscccccccccssc"
         d="m -503.0111,-329.7662 c -22.70001,0 -37.9004,17.80039 -37.9004,44.40039 0,26.5 12.78164,44.29883 37.9004,44.29883 10.77153,-0.052 12.26789,-3.91639 18.69922,-10.69922 v 8.79883 h 20.80078 v -43.36574 c 0,-23.80935 -14.16379,-43.22474 -39.5,-43.43309 z m 1.09961,18.69922 c 7.70557,0.21248 17.59961,6.79837 17.59961,24.40096 v 17.09904 c -3.9,5.8 -10.09961,9.80078 -17.59961,9.80078 -12.90001,0 -17.50001,-10.2996 -17.50001,-25.59961 0,-15.4 4.6,-25.70117 17.50001,-25.70117 z"
         style="fill:#ff4357;fill-opacity:1;fill-rule:evenodd"
         id="path2366" />
    </g>
  </g>
  <g
     transform="translate(-21.938765,1.3666)"
     style="display:inline"
     inkscape:label="tn"
     id="layer1"
     inkscape:groupmode="layer" />
</svg>
