<?xml version="1.0" encoding="UTF-8" standalone="no"?>
<svg
   xmlns:dc="http://purl.org/dc/elements/1.1/"
   xmlns:cc="http://creativecommons.org/ns#"
   xmlns:rdf="http://www.w3.org/1999/02/22-rdf-syntax-ns#"
   xmlns:svg="http://www.w3.org/2000/svg"
   xmlns="http://www.w3.org/2000/svg"
   xmlns:sodipodi="http://sodipodi.sourceforge.net/DTD/sodipodi-0.dtd"
   xmlns:inkscape="http://www.inkscape.org/namespaces/inkscape"
   height="123.9761"
   width="308.44064"
   inkscape:version="1.0 (4035a4f, 2020-05-01)"
   sodipodi:docname="ratatin.svg"
   id="svg1518"
   version="1.1"
   viewBox="0 0 308.44064 123.9761"
   class="H(24px) Mx(12px)">
  <metadata
     id="metadata1524">
    <rdf:RDF>
      <cc:Work
         rdf:about="">
        <dc:format>image/svg+xml</dc:format>
        <dc:type
           rdf:resource="http://purl.org/dc/dcmitype/StillImage" />
        <dc:title></dc:title>
      </cc:Work>
    </rdf:RDF>
  </metadata>
  <defs
     id="defs1522" />
  <sodipodi:namedview
     inkscape:guide-bbox="true"
     showguides="true"
     fit-margin-bottom="0"
     fit-margin-right="0"
     fit-margin-left="0"
     fit-margin-top="0"
     inkscape:snap-page="true"
     inkscape:snap-global="true"
     inkscape:current-layer="g1516"
     inkscape:window-maximized="0"
     inkscape:window-y="83"
     inkscape:window-x="0"
     inkscape:cy="230.27405"
     inkscape:cx="51.314601"
     inkscape:zoom="0.87459122"
     showgrid="false"
     id="namedview1520"
     inkscape:window-height="922"
     inkscape:window-width="1680"
     inkscape:pageshadow="2"
     inkscape:pageopacity="0"
     guidetolerance="10"
     gridtolerance="10"
     objecttolerance="10"
     borderopacity="1"
     bordercolor="#666666"
     pagecolor="#ffffff">
    <sodipodi:guide
       id="guide3014"
       orientation="0,-1"
       position="185.84064,111.77609" />
  </sodipodi:namedview>
  <g
     transform="translate(-12.359358,-1)"
     style="fill:#ff4357;fill-opacity:1"
     id="g1516"
     fill-rule="evenodd"
     fill="none">
    <title
       id="title1510">Tin</title>
    <path
       sodipodi:nodetypes="ccccsscsccccccccccssccccccccscccscccscccccccc"
       style="fill:#ff4357;fill-opacity:1"
       id="path1514"
       fill="var(--color--brand-pink, inherit)"
       d="m 205.2,101.1 1.7,-2 5.3,16.8 -0.7,0.7 c -4,3.7 -10,5.6 -17.7,5.6 h -0.3 c -7,0 -12.5,-2 -16.3,-5.7 -3.8,-3.8 -5.8,-9.5 -5.8,-16.7 V 54 H 157.9 V 35.5 h 13.5 V 13.2 h 20.8 v 22.3 h 16.5 V 54 h -16.6 v 41.3 c 0,1.9 0.5,8 6.3,8 3,0 5.8,-1.1 6.8,-2.3 z m 11,19.2 V 35.6 H 237 v 84.7 z M 226.5,1 c 11.11288,3.556e-4 16.69883,13.41481 8.87314,21.303112 C 227.54744,30.191414 214.0889,24.712523 214,13.6 214,6.8 219.7,1 226.5,1 Z m 66.4,32.5 c 18,0 27.9,9.8 27.9,27.7 v 59 H 300 v -54 c -0.4,-9.6 -5,-14 -14.8,-14 -8.8,0 -15.9,5.4 -19.5,10 v 58 H 244.9 V 35.7 h 20.8 v 9 c 6,-5.8 15.6,-11 27.2,-11 z" />
    <g
       transform="matrix(0.399635,0,0,0.399635,12.359208,9.8616337)"
       id="g2160">
      <g
         id="g2099">
	<g
   id="g2097">
		<g
   id="g2095">
			<path
   d="m 147.444,259.621 c -14.214,0 -14.214,3.622 -14.214,6.818 0,9.492 7.97,21.61 14.214,21.61 6.244,0 14.213,-12.118 14.213,-21.61 0,-3.196 0,-6.818 -14.213,-6.818 z"
   id="path2087" />

			<path
   d="M 32.975,114.237 C 34.651,85.562 46.282,63.998 67.631,50.082 79.42,42.397 94.326,37.079 112.167,34.17 101.618,18.578 83.928,8.949 64.635,8.949 32.983,8.949 7.233,34.699 7.233,66.35 c 0,19.684 9.808,37.427 25.742,47.887 z"
   id="path2089" />

			<path
   d="m 261.987,115.521 c 17.134,-10.251 27.78,-28.66 27.78,-49.171 0,-31.651 -25.75,-57.401 -57.402,-57.401 -19.433,0 -37.242,9.767 -47.763,25.559 17,2.971 31.286,8.164 42.654,15.574 21.667,14.123 33.333,36.12 34.731,65.439 z"
   id="path2091" />

			<path
   d="m 292.211,204.011 c -22.34,-9.74 -44.983,-11.505 -63.937,-10.195 11.191,-22.995 17.909,-48.795 17.909,-72.209 0,-27.017 -9.04,-46.043 -27.636,-58.165 -16.235,-10.583 -40.157,-15.949 -71.103,-15.949 -30.946,0 -54.869,5.366 -71.104,15.949 -18.596,12.122 -27.636,31.148 -27.636,58.165 0,23.369 6.691,49.113 17.844,72.074 -18.498,-1.028 -40.269,0.96 -61.759,10.33 -4.037,1.76 -5.882,6.46 -4.122,10.496 1.759,4.038 6.459,5.885 10.496,4.122 22.745,-9.915 46.37,-10.277 64.767,-7.982 3.914,6.244 8.168,12.13 12.702,17.53 -21.126,5.865 -50.824,18.399 -72.83,44.87 -2.816,3.387 -2.353,8.414 1.034,11.229 1.489,1.239 3.297,1.843 5.094,1.843 2.288,0 4.559,-0.979 6.135,-2.876 22.391,-26.933 54.898,-37.65 73.467,-41.756 5.982,5.284 12.291,9.704 18.835,13.02 2.112,-3.439 4.987,-5.667 7.601,-7.077 4.751,-2.563 10.94,-3.757 19.476,-3.757 8.536,0 14.724,1.194 19.475,3.757 2.615,1.41 5.491,3.64 7.603,7.081 6.705,-3.398 13.164,-7.953 19.275,-13.412 18.204,3.789 51.975,14.282 75.138,42.144 1.577,1.897 3.848,2.876 6.135,2.876 1.797,0 3.605,-0.604 5.094,-1.843 3.387,-2.815 3.85,-7.843 1.034,-11.229 -22.61,-27.197 -53.341,-39.683 -74.551,-45.338 4.313,-5.182 8.369,-10.804 12.116,-16.755 18.703,-2.614 43.365,-2.659 67.073,7.676 1.038,0.453 2.119,0.667 3.183,0.667 3.075,0 6.006,-1.79 7.313,-4.789 1.761,-4.037 -0.084,-8.737 -4.121,-10.497 z m -183.06,-39.077 c -5.035,0 -9.117,-4.082 -9.117,-9.118 0,-5.036 4.082,-9.118 9.117,-9.117 5.035,0 9.117,4.082 9.117,9.117 0,5.036 -4.082,9.118 -9.117,9.118 z m 79.178,0 c -5.035,0 -9.117,-4.082 -9.117,-9.118 0,-5.036 4.082,-9.118 9.117,-9.117 5.035,0 9.117,4.082 9.117,9.117 0,5.036 -4.082,9.118 -9.117,9.118 z"
   id="path2093" />

		</g>

	</g>

</g>
      <g
         id="g2101">
</g>
      <g
         id="g2103">
</g>
      <g
         id="g2105">
</g>
      <g
         id="g2107">
</g>
      <g
         id="g2109">
</g>
      <g
         id="g2111">
</g>
      <g
         id="g2113">
</g>
      <g
         id="g2115">
</g>
      <g
         id="g2117">
</g>
      <g
         id="g2119">
</g>
      <g
         id="g2121">
</g>
      <g
         id="g2123">
</g>
      <g
         id="g2125">
</g>
      <g
         id="g2127">
</g>
      <g
         id="g2129">
</g>
    </g>
  </g>
</svg>
